<?xml version="1.0" ?><!-- Uploaded to: SVG Repo, www.svgrepo.com, Generator: SVG Repo Mixer Tools -->
<svg width="800px" height="800px" viewBox="0 0 1000 1000" id="Layer_2" version="1.1" xml:space="preserve" xmlns="http://www.w3.org/2000/svg" xmlns:xlink="http://www.w3.org/1999/xlink"><path d="M814.817,382.75h-45.773c0-9.665-7.835-17.5-17.5-17.5h-57.5c-9.665,0-17.5,7.835-17.5,17.5h-64  c0-9.665-7.835-17.5-17.5-17.5h-150c-9.665,0-17.5,7.835-17.5,17.5h-28.058c-123.542,0-228.097,91.845-243.34,214.442  c-0.04,0.323-0.079,0.64-0.117,0.952c-0.166,1.379-0.064,2.719,0.241,3.986c-3.965,1.814-6.726,5.807-6.726,10.453v10.667  c0,6.351,5.149,11.5,11.5,11.5h193.611c6.351,0,11.5-5.149,11.5-11.5v-10.667c0-0.625-0.064-1.235-0.16-1.833h25.859  c-0.096,0.598-0.16,1.208-0.16,1.833v10.667c0,6.351,5.149,11.5,11.5,11.5h193.611c6.351,0,11.5-5.149,11.5-11.5v-10.667  c0-0.625-0.064-1.235-0.16-1.833h25.859c-0.096,0.598-0.16,1.208-0.16,1.833v10.667c0,6.351,5.149,11.5,11.5,11.5h193.611  c6.351,0,11.5-5.149,11.5-11.5v-10.667c0-0.625-0.064-1.235-0.16-1.833h0.16V418.389C850.456,398.706,834.5,382.75,814.817,382.75z   M395.476,497.785c-17.829,23.27-45.942,38.094-77.072,38.094h-119.1c14.1-30.59,35.01-57.27,60.68-78.26h115.608  C396.287,457.62,408.062,481.358,395.476,497.785z M451.544,482.62c0-13.807,11.193-25,25-25h242c13.807,0,25,11.193,25,25v28.26  c0,13.807-11.193,25-25,25h-242c-13.807,0-25-11.193-25-25V482.62z M812.044,579.75h-352c-4.694,0-8.5-3.806-8.5-8.5  s3.806-8.5,8.5-8.5h352c4.694,0,8.5,3.806,8.5,8.5S816.738,579.75,812.044,579.75z M820.544,510.88c0,13.807-11.193,25-25,25h-1.5  c-13.807,0-25-11.193-25-25v-28.26c0-13.807,11.193-25,25-25h1.5c13.807,0,25,11.193,25,25V510.88z" style="fill:#231F20;"/></svg>