<?xml version="1.0" encoding="utf-8"?>

<!DOCTYPE svg PUBLIC "-//W3C//DTD SVG 1.1//EN" "http://www.w3.org/Graphics/SVG/1.1/DTD/svg11.dtd">
<!-- Uploaded to: SVG Repo, www.svgrepo.com, Generator: SVG Repo Mixer Tools -->
<svg height="800px" width="800px" version="1.1" id="_x32_" xmlns="http://www.w3.org/2000/svg" xmlns:xlink="http://www.w3.org/1999/xlink" 
	 viewBox="0 0 512 512"  xml:space="preserve">
<style type="text/css">
	.st0{fill:#000000;}
</style>
<g>
	<path class="st0" d="M221.672,109.882c30.346,0,54.945-24.6,54.945-54.95C276.617,24.591,252.018,0,221.672,0
		c-30.337,0-54.937,24.591-54.937,54.932C166.736,85.282,191.335,109.882,221.672,109.882z"/>
	<path class="st0" d="M476.641,465.19l-80.767-51.634l-65.079-102.251l-21.42-120.873l69.702-6.477l59.974,38.789
		c8.058,5.206,18.695,3.734,25.018-3.47l0.345-0.4c7.022-7.985,6.277-20.139-1.672-27.198l-53.678-47.719
		c-5.796-5.141-13.19-8.112-20.93-8.402l-133.937-7.467c-4.124-0.228-7.966,0.081-7.966,0.081c-1.726,0.146-3.466,0.354-5.205,0.646
		c-9.756,1.68-18.513,5.713-25.794,11.409l-98.486,59.465L54.71,164.987c-9.633-5.387-21.793-2.19-27.52,7.24l-0.781,1.281
		c-2.838,4.678-3.697,10.282-2.38,15.579c1.313,5.305,4.692,9.865,9.389,12.663l73.926,44.122
		c9.198,5.496,20.403,6.485,30.428,2.698l62.376-23.582l20.766,83.737l-87.611-0.345c-11.624-0.036-22.661,5.124-30.078,14.08
		c-7.408,8.957-10.42,20.757-8.208,32.176l23.214,119.529c2.571,13.235,15.116,22.101,28.456,20.103l0.995-0.154
		c13.199-1.981,22.56-13.908,21.338-27.198l-7.862-85.646l121.91,3.852l57.102,57.53c7.949,8.021,17.033,14.844,26.944,20.248
		l84.819,46.33c11.882,6.14,26.498,1.744,33.021-9.938l0.472-0.818C491.93,486.819,488.051,472.112,476.641,465.19z"/>
</g>
</svg>